<svg xmlns="http://www.w3.org/2000/svg" xmlns:svg="http://www.w3.org/2000/svg" id="svg2" width="64" height="64" version="1.1" viewBox="0 0 64 64"><metadata id="metadata7"/><g id="layer1" transform="translate(0,-988.36216)"><g id="text4148" style="font-style:normal;font-weight:400;font-size:91.42857361px;line-height:125%;font-family:Sans;letter-spacing:0;word-spacing:0;fill:#000;fill-opacity:1;stroke:none;stroke-width:1px;stroke-linecap:butt;stroke-linejoin:miter;stroke-opacity:1"><path id="rect4429" d="M 5.3027344 5.6640625 C 2.4626401 5.6640625 0.17773438 7.9509213 0.17773438 10.791016 L 0.17773438 47.470703 C 0.17773438 50.310797 2.4626401 52.597656 5.3027344 52.597656 L 58.867188 52.597656 C 61.707282 52.597656 63.994141 50.310797 63.994141 47.470703 L 63.994141 10.791016 C 63.994141 7.9509213 61.707282 5.6640625 58.867188 5.6640625 L 5.3027344 5.6640625 z M 15.011719 13.802734 L 23.90625 13.802734 L 23.90625 43.847656 L 15.011719 43.847656 L 15.011719 13.802734 z M 38.839844 13.802734 L 49.226562 13.802734 L 37.730469 27.923828 L 50.351562 43.847656 L 39.964844 43.847656 L 27.34375 27.923828 L 38.839844 13.802734 z" transform="translate(0,988.36216)" style="color:#000;clip-rule:nonzero;display:inline;overflow:visible;visibility:visible;opacity:1;isolation:auto;mix-blend-mode:normal;color-interpolation:sRGB;color-interpolation-filters:linearRGB;solid-color:#000;solid-opacity:1;fill:#933128;fill-opacity:1;fill-rule:nonzero;stroke:none;stroke-width:1;stroke-linecap:butt;stroke-linejoin:miter;stroke-miterlimit:4;stroke-dasharray:none;stroke-dashoffset:0;stroke-opacity:1;marker:none;color-rendering:auto;image-rendering:auto;shape-rendering:auto;text-rendering:auto;enable-background:accumulate"/><path id="rect4431-9" d="m 19.195079,1040.2125 16.379387,-0.1098 4.384784,12.2771 z" style="color:#000;font-style:normal;font-weight:400;font-size:91.42857361px;line-height:125%;font-family:Sans;letter-spacing:0;word-spacing:0;clip-rule:nonzero;display:inline;overflow:visible;visibility:visible;opacity:1;isolation:auto;mix-blend-mode:normal;color-interpolation:sRGB;color-interpolation-filters:linearRGB;solid-color:#000;solid-opacity:1;fill:#933128;fill-opacity:1;fill-rule:nonzero;stroke:none;stroke-width:1;stroke-linecap:butt;stroke-linejoin:miter;stroke-miterlimit:4;stroke-dasharray:none;stroke-dashoffset:0;stroke-opacity:1;marker:none;color-rendering:auto;image-rendering:auto;shape-rendering:auto;text-rendering:auto;enable-background:accumulate"/></g></g></svg>